<?xml version="1.0" standalone="no"?>
<!DOCTYPE svg PUBLIC "-//W3C//DTD SVG 20010904//EN"
 "http://www.w3.org/TR/2001/REC-SVG-20010904/DTD/svg10.dtd">
<svg version="1.0" xmlns="http://www.w3.org/2000/svg"
 width="300.000000pt" height="255.000000pt" viewBox="0 0 300.000000 255.000000"
 preserveAspectRatio="xMidYMid meet">
<metadata>
Created by potrace 1.10, written by Peter Selinger 2001-2011
</metadata>
<g transform="translate(0.000000,255.000000) scale(0.100000,-0.100000)"
fill="#000000" stroke="none">
<path d="M2 2509 c2 -35 10 -47 41 -73 44 -35 68 -29 77 20 3 16 12 30 20 30
8 1 20 2 26 3 33 3 24 61 -10 61 -21 0 -21 -1 3 -19 17 -13 20 -20 12 -26 -8
-4 -24 3 -40 19 -30 28 -64 38 -36 10 15 -15 15 -18 0 -41 -13 -19 -14 -28 -5
-38 7 -8 9 -19 5 -25 -4 -6 -22 6 -45 32 l-38 43 21 23 20 22 -27 0 c-26 0
-27 -2 -24 -41z"/>
<path d="M250 2525 c-7 -13 -20 -28 -29 -31 -31 -13 -223 -221 -219 -238 2
-11 52 32 158 139 133 133 151 155 129 155 -17 0 -30 -8 -39 -25z"/>
<path d="M1255 2375 l-30 -14 40 6 c22 4 48 6 58 5 9 0 15 3 12 9 -9 13 -45
10 -80 -6z"/>
<path d="M1360 2358 c21 -20 70 -30 63 -11 -3 7 -10 13 -17 13 -6 0 -22 3 -36
7 -22 6 -23 5 -10 -9z"/>
<path d="M1105 2310 c-22 -43 -19 -58 16 -65 17 -4 55 -18 85 -31 30 -13 54
-23 55 -21 1 1 3 23 5 49 4 44 2 48 -25 63 -40 20 -54 19 -16 -2 45 -25 15
-27 -41 -3 -37 16 -45 23 -34 30 12 8 10 10 -7 10 -15 0 -28 -10 -38 -30z m90
-46 c14 -9 25 -20 25 -25 0 -11 -61 10 -80 27 -12 12 -11 14 8 14 13 0 34 -7
47 -16z"/>
<path d="M1375 2282 c-86 -27 -81 -43 6 -18 61 18 89 20 89 6 0 -5 -6 -10 -14
-10 -32 0 -191 -59 -161 -60 11 0 198 50 203 55 2 1 0 14 -4 29 -8 32 -16 32
-119 -2z"/>
<path d="M1037 2263 c-13 -12 -7 -54 8 -59 11 -4 15 -21 15 -59 0 -55 8 -65
50 -65 11 0 31 -18 48 -43 20 -28 41 -46 63 -52 42 -12 53 -57 20 -75 -19 -10
-21 -20 -21 -129 l0 -118 51 -5 c41 -4 57 -12 89 -43 22 -22 45 -54 51 -73 18
-54 7 -135 -24 -180 -21 -30 -27 -50 -27 -94 0 -53 -1 -57 -30 -67 -60 -21
-22 -25 50 -5 12 3 14 18 12 73 -4 76 14 134 29 96 8 -22 15 83 10 170 -2 39
-7 54 -26 68 l-24 18 -1 241 c0 133 -2 243 -4 245 -2 2 -19 -3 -37 -11 -29
-12 -30 -15 -11 -15 l22 -1 0 -210 c0 -115 -4 -210 -8 -210 -5 0 -23 7 -40 16
l-31 15 0 210 c1 187 3 209 17 209 10 0 62 13 117 29 55 16 103 26 108 24 4
-2 7 -57 8 -121 1 -147 16 -119 18 33 1 84 5 113 16 121 8 6 15 21 15 33 0 20
-2 21 -27 7 -16 -7 -75 -27 -133 -42 -58 -16 -98 -30 -89 -32 9 -1 55 9 104
23 100 29 95 28 95 16 0 -14 -245 -85 -261 -75 -17 10 -9 24 14 25 13 0 16 2
7 6 -104 34 -217 86 -231 105 -3 5 -8 5 -12 1z m153 -92 c25 -12 70 -71 70
-92 0 -6 -7 -3 -16 5 -21 22 -48 21 -40 0 4 -9 4 -25 0 -36 -9 -29 -33 -4 -40
43 -6 38 -34 57 -34 23 0 -9 -6 -14 -12 -12 -7 3 -14 25 -16 50 l-3 46 33 -8
c18 -4 44 -13 58 -19z"/>
<path d="M1453 2133 c-13 -2 -23 -8 -23 -13 0 -4 9 -6 20 -3 19 5 20 0 20
-127 0 -131 0 -131 -22 -128 -14 2 -30 -5 -40 -19 -26 -31 -22 -37 11 -14 16
12 33 21 38 21 6 0 17 8 26 18 14 15 17 41 17 145 0 96 -3 127 -12 126 -7 -1
-23 -4 -35 -6z"/>
<path d="M928 2104 c-63 -19 -61 -28 5 -18 28 4 60 8 70 8 21 0 22 12 1 20
-20 8 -19 8 -76 -10z"/>
<path d="M801 2056 c-5 -6 -14 -24 -20 -39 -6 -15 -15 -27 -21 -27 -24 0 -7
-19 26 -30 20 -7 61 -25 92 -41 30 -16 57 -27 60 -25 2 3 5 29 6 59 l1 54 -67
30 c-50 23 -70 28 -77 19z m102 -42 c17 -10 27 -19 21 -21 -15 -5 -104 34
-104 46 0 12 29 3 83 -25z m-45 -28 c15 -8 35 -17 45 -20 28 -9 20 -25 -13
-24 -16 1 -30 4 -30 8 0 4 -11 12 -25 18 -25 12 -34 32 -14 32 6 0 23 -6 37
-14z"/>
<path d="M1756 2015 c-97 -39 -229 -105 -222 -112 6 -7 90 25 215 82 76 34
117 46 152 47 27 0 49 4 49 9 0 22 -107 7 -194 -26z"/>
<path d="M1062 1995 c-66 -20 -74 -24 -68 -34 5 -8 131 31 144 44 10 9 -33 4
-76 -10z"/>
<path d="M1820 1992 c0 -16 -130 -92 -158 -92 -38 0 3 -20 110 -54 67 -21 129
-40 137 -43 14 -5 14 -4 1 9 -8 9 -48 25 -88 37 -139 42 -136 38 -63 73 l65
31 90 -27 c50 -15 98 -30 107 -33 9 -2 23 3 32 11 8 9 22 16 29 17 7 0 -9 6
-37 14 -53 14 -74 12 -34 -4 53 -21 -12 -8 -91 19 -47 16 -69 27 -50 23 42 -6
38 -1 -12 20 -35 15 -38 15 -38 -1z"/>
<path d="M705 1987 c-21 -16 -14 -67 9 -67 14 0 22 -71 29 -242 l2 -66 44 -24
c86 -46 146 -159 145 -275 0 -53 2 -63 22 -73 27 -15 64 -80 64 -114 0 -15 -7
-42 -14 -61 -8 -19 -14 -35 -12 -35 2 0 17 13 34 30 18 16 41 30 51 30 22 0
37 17 26 28 -4 4 -10 1 -12 -5 -9 -26 -22 -12 -26 30 -3 35 -5 38 -12 19 -6
-20 -11 -15 -36 39 -16 33 -33 58 -38 55 -12 -8 -21 18 -21 59 0 47 -26 152
-48 200 -11 22 -22 74 -26 115 -11 136 -18 180 -28 186 -7 5 -8 -29 -3 -97 8
-122 8 -108 6 -139 l-2 -25 -11 23 c-6 12 -16 22 -23 22 -21 0 -34 44 -40 145
-4 55 -12 106 -18 113 -8 10 -7 16 2 22 9 5 10 10 2 14 -6 4 -11 16 -11 26 0
11 -9 24 -20 30 -22 12 -27 36 -7 43 6 3 7 6 1 6 -5 1 -18 -5 -29 -12z"/>
<path d="M2200 1950 c0 -17 5 -30 10 -30 6 0 10 4 10 9 0 5 3 16 6 24 3 8 -2
17 -10 20 -12 5 -16 -1 -16 -23z"/>
<path d="M1085 1956 c-10 -7 -24 -12 -30 -10 -6 3 -28 -4 -50 -15 -41 -21 -27
-29 20 -11 14 5 37 12 51 14 31 6 37 11 32 26 -2 7 -10 6 -23 -4z"/>
<path d="M2233 1945 c-3 -9 -3 -19 1 -22 7 -7 36 16 36 28 0 15 -30 10 -37 -6z"/>
<path d="M1140 1918 c-36 -10 -90 -26 -120 -34 -30 -9 -59 -19 -64 -24 -8 -8
42 4 180 43 48 14 101 37 79 36 -5 -1 -39 -10 -75 -21z"/>
<path d="M2022 1868 c-52 -27 -91 -52 -88 -56 10 -9 186 81 186 95 0 7 -1 12
-2 12 -2 -1 -45 -24 -96 -51z"/>
<path d="M2303 1883 c-7 -23 -8 -40 -2 -44 13 -8 -18 -32 -71 -54 -25 -11 -70
-32 -100 -46 -30 -15 -57 -25 -59 -23 -8 8 34 41 47 36 6 -2 12 3 12 12 0 9 6
16 14 16 7 0 27 7 42 15 16 8 22 15 14 15 -9 0 -56 -20 -107 -45 -86 -42 -91
-47 -95 -80 -2 -19 -2 -35 2 -34 3 0 79 37 170 82 l164 82 -1 35 c-1 59 -3 70
-11 70 -4 0 -12 -17 -19 -37z"/>
<path d="M827 1894 c-9 -10 -9 -25 1 -22 20 5 53 -17 66 -45 8 -18 18 -86 23
-152 l8 -120 3 125 3 125 129 34 c134 36 173 51 133 51 -12 0 -76 -16 -143
-35 -140 -40 -143 -41 -136 -17 7 21 -3 37 -29 44 -11 3 -27 9 -36 12 -8 4
-18 3 -22 0z"/>
<path d="M2350 1862 c0 -21 18 -42 37 -42 20 0 15 38 -6 50 -27 14 -31 13 -31
-8z"/>
<path d="M1490 1851 c0 -5 -14 -24 -31 -41 -18 -17 -28 -35 -23 -39 5 -4 34
-15 64 -24 30 -8 93 -27 140 -42 145 -46 222 -67 226 -63 2 2 -83 30 -189 63
-105 32 -196 62 -202 68 -7 7 -4 8 8 3 11 -3 31 -9 45 -12 15 -3 104 -30 197
-59 171 -54 227 -66 234 -52 6 13 -10 127 -18 127 -15 0 -41 -48 -38 -71 3
-32 -20 -31 -145 6 -62 19 -146 43 -185 55 -70 20 -85 31 -63 45 16 10 12 45
-5 45 -8 0 -15 -4 -15 -9z"/>
<path d="M1133 1840 c-31 -12 -29 -24 2 -16 31 8 38 -15 33 -113 -1 -39 1 -70
5 -68 5 1 8 6 8 10 -1 4 -1 50 -1 102 0 100 -2 103 -47 85z"/>
<path d="M1008 1803 c-10 -2 -18 -11 -18 -19 0 -11 4 -12 19 -5 10 6 21 7 25
4 3 -3 7 -54 7 -112 2 -156 16 -193 18 -45 0 67 -2 136 -5 153 -6 30 -12 33
-46 24z"/>
<path d="M2415 1790 c-10 -12 -69 -46 -131 -78 -62 -31 -111 -58 -109 -61 3
-2 42 15 88 38 47 22 89 41 96 41 6 0 11 4 11 10 0 5 7 7 15 4 19 -8 19 -19
-1 -39 -21 -21 -12 -30 15 -15 12 6 21 21 21 35 0 13 5 36 10 51 13 34 8 39
-15 14z"/>
<path d="M2180 1719 c-91 -43 -159 -79 -152 -79 18 0 314 139 330 155 14 14
-27 -4 -178 -76z"/>
<path d="M501 1754 c-21 -27 -61 -124 -61 -149 0 -8 -4 -17 -10 -20 -5 -3 -10
-13 -10 -21 0 -11 8 -9 33 10 49 37 78 45 177 47 49 1 90 6 90 10 0 20 -99
114 -138 130 -56 24 -57 24 -81 -7z m53 -19 c-4 -8 -1 -15 5 -15 6 0 11 5 11
10 0 6 6 10 14 10 13 0 76 -84 76 -102 0 -4 -13 -8 -29 -8 -23 0 -32 7 -45 35
-19 39 -37 46 -33 13 1 -16 -5 -25 -25 -32 -15 -5 -30 -7 -33 -4 -7 7 19 74
36 95 15 18 30 17 23 -2z"/>
<path d="M1390 1753 c1 -15 28 -43 41 -43 8 0 48 -11 89 -24 41 -13 116 -36
165 -50 50 -15 100 -31 112 -36 37 -15 120 -23 126 -12 4 5 -14 12 -41 15 -56
7 -428 122 -459 143 -25 16 -33 17 -33 7z"/>
<path d="M971 1645 c0 -44 4 -87 9 -95 12 -19 12 126 0 155 -6 13 -9 -6 -9
-60z"/>
<path d="M1100 1649 c0 -26 -7 -63 -15 -82 -22 -54 -20 -166 5 -197 11 -14 20
-33 20 -42 0 -10 4 -18 9 -18 15 0 21 29 8 37 -21 14 -37 51 -43 106 -5 44 -2
63 16 103 23 49 26 95 9 124 -6 10 -8 0 -9 -31z"/>
<path d="M2210 1592 c-228 -115 -279 -117 -565 -23 -82 27 -157 52 -165 56
-17 6 -16 13 -12 -229 2 -86 13 -94 22 -15 3 27 10 50 15 50 6 0 15 -26 22
-58 l11 -58 -5 59 c-5 56 -5 58 16 51 12 -3 21 -2 21 3 0 6 -19 17 -42 24 -37
12 -43 19 -46 44 -4 45 30 58 97 36 41 -13 51 -20 51 -38 0 -12 -11 -29 -26
-39 -31 -20 -26 -29 10 -16 24 10 26 8 26 -15 0 -27 55 -67 100 -72 40 -4 90
32 90 65 0 41 -10 51 -66 68 -59 18 -57 18 -49 5 4 -6 21 -17 38 -25 l32 -15
-42 6 c-52 7 -58 -10 -9 -26 27 -8 39 -8 55 2 24 15 32 9 25 -19 -10 -38 -45
-48 -108 -28 -49 16 -56 21 -56 44 0 18 9 32 28 45 15 9 19 15 10 12 -12 -4
-24 3 -35 21 -19 28 -68 53 -107 53 -28 0 -43 17 -28 32 6 6 24 3 53 -11 23
-12 49 -21 56 -21 7 0 68 -18 135 -41 107 -35 132 -40 198 -38 41 2 86 9 100
16 66 34 178 82 205 89 17 4 33 12 37 18 9 14 22 1 13 -13 -3 -6 -16 -11 -27
-11 -23 0 -113 -49 -105 -56 3 -3 26 5 51 17 39 18 52 20 72 11 36 -17 30 -47
-17 -82 -43 -31 -64 -31 -54 -1 4 13 -3 20 -30 28 -39 12 -57 0 -25 -17 11 -6
20 -21 20 -35 0 -19 -11 -29 -51 -49 -34 -18 -56 -23 -66 -17 -11 6 -12 10 -4
15 17 11 13 23 -9 29 -18 5 -20 0 -20 -43 0 -49 15 -75 26 -46 3 9 14 16 23
16 9 0 32 11 51 25 19 14 39 25 45 25 16 0 73 29 80 41 15 24 27 6 21 -33 -6
-46 -23 -154 -31 -203 -3 -16 -8 -46 -11 -65 -6 -37 -29 -70 -49 -70 -11 0
-85 -73 -85 -84 0 -1 -11 -34 -25 -72 -14 -38 -25 -78 -25 -90 0 -24 -48 -70
-94 -89 -19 -8 -49 -11 -74 -8 -37 5 -42 9 -43 32 -1 17 -3 20 -6 9 -2 -10 -8
-18 -11 -18 -11 0 -126 36 -173 54 -44 17 -97 75 -85 94 3 6 -1 61 -9 123 -8
62 -15 134 -15 160 0 26 -4 51 -10 54 -5 3 -10 1 -10 -4 0 -20 -19 -11 -24 12
-11 49 7 -135 24 -253 17 -111 22 -128 46 -148 14 -13 25 -24 23 -26 -2 -2
-24 -14 -49 -27 -38 -20 -41 -24 -23 -27 12 -2 35 7 52 19 l29 21 72 -28 c39
-15 73 -30 75 -34 2 -3 -31 -21 -73 -39 -42 -18 -102 -48 -132 -66 -69 -42
-110 -54 -110 -32 0 9 -4 18 -9 21 -5 4 -7 -3 -4 -14 4 -14 -2 -23 -21 -31
-14 -7 -26 -17 -26 -23 0 -11 -44 -42 -85 -60 -11 -4 -15 -10 -10 -12 6 -2
120 52 255 121 l245 125 38 -15 c56 -22 105 -18 167 15 35 19 58 26 64 20 6
-6 37 -10 70 -10 102 0 163 44 195 142 12 38 7 83 -9 73 -4 -3 -15 6 -24 20
-15 23 -15 25 0 25 17 0 16 31 -2 37 -16 5 -74 -45 -84 -73 -11 -28 -2 -64 15
-58 7 3 12 18 11 33 -2 32 16 36 41 9 10 -12 12 -18 4 -18 -8 0 -10 -7 -6 -20
4 -12 2 -20 -5 -20 -6 0 -8 5 -5 10 9 15 -4 12 -21 -5 -14 -13 -14 -15 0 -15
18 0 21 -16 5 -25 -5 -4 -19 4 -30 17 l-21 23 4 -30 c2 -22 9 -31 25 -33 17
-3 30 8 55 42 36 52 45 53 28 2 -19 -58 -47 -86 -86 -86 -19 0 -34 -4 -34 -8
0 -4 -28 -8 -62 -9 -58 -2 -61 -1 -43 13 11 9 25 18 32 22 8 5 9 19 4 42 -5
22 -3 49 6 73 15 44 108 147 134 147 12 0 18 12 22 43 4 23 22 152 42 286 20
134 35 249 33 255 -2 6 -66 -21 -148 -62z"/>
<path d="M2098 1625 c-3 -3 -34 -12 -69 -20 -52 -11 -57 -14 -28 -14 20 -1 51
4 70 10 36 12 61 29 43 29 -6 0 -13 -2 -16 -5z"/>
<path d="M1259 1575 c-12 -25 -20 -48 -16 -51 3 -4 14 10 24 31 16 34 20 36
53 31 l35 -5 -25 19 c-36 28 -46 25 -71 -25z"/>
<path d="M670 1555 c7 -8 25 -15 40 -15 30 0 104 -65 115 -101 6 -18 25 -27
25 -11 0 10 -27 48 -60 86 -27 31 -76 56 -111 56 -18 0 -19 -2 -9 -15z"/>
<path d="M1355 1550 c-4 -6 -14 -9 -23 -8 -13 2 -18 -6 -20 -41 -3 -39 -2 -43
12 -32 9 8 16 20 16 27 0 8 7 14 15 14 11 0 15 -11 15 -36 0 -24 -4 -33 -11
-28 -8 5 -10 -1 -7 -18 3 -18 0 -24 -14 -25 -9 -1 -20 2 -23 8 -4 5 -11 9 -17
9 -5 0 4 -13 22 -30 18 -16 33 -30 35 -30 11 0 25 73 25 126 0 59 -11 87 -25
64z"/>
<path d="M430 1513 c-34 -42 -65 -132 -55 -162 9 -29 63 -84 75 -76 14 9 12
25 -3 25 -41 0 -48 117 -10 169 17 22 36 81 27 81 -1 0 -17 -17 -34 -37z"/>
<path d="M2101 1480 c-24 -11 -41 -23 -38 -26 5 -6 87 33 87 41 0 7 0 7 -49
-15z"/>
<path d="M344 1385 c-12 -46 3 -144 30 -198 34 -70 129 -167 162 -167 32 0 21
-21 -20 -41 -25 -11 -70 -44 -100 -73 -44 -42 -58 -64 -71 -110 -24 -83 -9
-132 64 -210 53 -56 157 -133 167 -123 3 2 -25 23 -60 47 -183 119 -215 252
-89 371 38 37 166 119 185 119 5 0 7 -12 4 -27 -3 -16 -8 -72 -12 -125 -5 -78
-10 -101 -27 -119 -13 -14 -22 -18 -25 -11 -5 16 -35 15 -50 0 -7 -7 -12 -28
-12 -47 0 -29 5 -38 25 -48 30 -13 31 -7 6 26 -20 26 -17 71 5 71 8 0 14 -6
14 -13 0 -8 6 -14 13 -14 6 -1 32 -3 57 -6 25 -2 37 -3 28 0 -19 5 -25 23 -8
23 6 0 6 7 -1 18 -9 14 -9 45 -1 125 7 59 9 113 6 122 -3 8 -2 15 4 15 6 0 13
-13 17 -30 4 -16 11 -32 16 -35 5 -4 7 0 5 7 -19 61 -18 66 24 73 22 4 50 15
63 26 24 18 25 18 41 0 10 -11 31 -25 47 -31 29 -13 35 -31 23 -76 -5 -18 -11
-20 -59 -16 -58 5 -105 -3 -105 -17 0 -5 41 -8 90 -8 l90 0 0 28 c0 15 5 31
10 34 6 3 10 14 10 24 0 10 14 24 33 34 l32 16 -45 0 c-25 1 -55 8 -67 16 -19
13 -21 20 -12 43 l10 27 -23 -23 c-14 -12 -34 -22 -45 -22 -22 0 -82 -22 -126
-46 -15 -8 -32 -12 -37 -9 -6 4 -22 9 -36 11 -32 6 -73 35 -74 52 0 6 -10 12
-23 12 -18 0 -27 10 -42 46 -10 26 -27 51 -37 58 -10 6 -18 21 -18 33 0 15 -6
23 -17 23 -17 1 -17 1 0 14 16 12 16 14 2 20 -9 3 -13 10 -10 16 3 5 2 10 -3
10 -5 0 -10 23 -11 52 -2 60 -7 71 -17 33z"/>
<path d="M1247 1343 c-2 -4 -5 -55 -6 -111 -1 -66 -7 -117 -16 -139 -22 -53
-20 -63 18 -63 37 0 77 23 59 34 -6 3 -13 2 -17 -4 -6 -10 -45 -15 -45 -6 0 3
5 17 11 33 8 22 12 25 20 13 7 -11 8 -5 3 20 -4 19 -8 62 -8 94 -1 47 3 64 19
78 15 15 17 22 9 36 -12 19 -39 28 -47 15z"/>
<path d="M1170 1323 c0 -4 12 -13 26 -20 22 -10 25 -9 22 5 -3 17 -48 31 -48
15z"/>
<path d="M474 1269 c-3 -5 4 -9 15 -9 12 0 21 -4 21 -10 0 -5 7 -10 16 -10 13
0 14 3 5 14 -15 18 -49 27 -57 15z"/>
<path d="M1481 1273 c-2 -19 -33 -45 -46 -39 -8 3 -16 -2 -19 -11 -5 -13 0
-14 31 -8 47 8 45 7 40 42 -2 15 -5 23 -6 16z"/>
<path d="M881 1209 c-13 -38 -14 -59 -3 -59 12 0 43 70 37 81 -11 17 -23 9
-34 -22z"/>
<path d="M1170 1160 c0 -32 1 -33 24 -24 12 5 13 10 4 30 -15 33 -28 30 -28
-6z"/>
<path d="M1452 1155 c3 -19 -18 -25 -47 -14 -5 2 -12 0 -15 -6 -3 -5 9 -11 26
-13 37 -4 65 22 45 41 -10 9 -12 8 -9 -8z"/>
<path d="M590 1107 c-30 -12 -48 -23 -40 -25 19 -3 86 23 95 38 3 5 5 9 3 9
-2 -1 -28 -11 -58 -22z"/>
<path d="M2300 1086 c0 -3 48 -27 107 -55 179 -86 261 -174 283 -301 10 -62
10 -72 -9 -108 -39 -76 -172 -175 -319 -236 -298 -125 -763 -182 -1162 -143
-561 56 -982 250 -956 439 19 139 63 200 203 290 41 26 55 48 32 48 -22 0
-125 -69 -171 -116 -76 -75 -91 -119 -89 -249 1 -101 4 -115 31 -172 97 -197
462 -348 964 -397 199 -20 312 -20 503 -1 430 43 729 144 886 298 79 78 96
120 103 264 7 118 6 123 -20 177 -39 79 -118 146 -251 212 -98 49 -135 62
-135 50z m-1835 -678 c115 -60 354 -134 490 -152 285 -38 543 -51 705 -36 431
41 731 127 923 262 55 39 67 45 67 29 0 -29 -54 -96 -117 -146 -136 -106 -362
-184 -668 -231 -105 -15 -451 -24 -610 -15 -343 19 -722 135 -884 269 -41 34
-101 116 -101 138 0 7 28 -8 63 -34 34 -26 94 -64 132 -84z"/>
<path d="M2320 1036 c0 -14 32 -76 40 -76 28 0 120 -43 120 -57 0 -8 17 -35
39 -59 42 -48 62 -107 55 -164 l-4 -35 16 35 c36 78 -7 191 -98 260 -45 33
-168 104 -168 96z"/>
<path d="M1395 939 c-60 -28 -130 -60 -155 -71 -25 -11 -57 -29 -72 -39 -15
-11 -44 -26 -65 -33 -63 -23 -278 -127 -281 -137 -2 -5 -12 -9 -21 -9 -10 0
-18 -6 -18 -14 0 -11 5 -11 26 -2 14 7 49 23 76 36 28 12 147 70 265 127 118
58 250 121 293 140 42 20 77 40 77 44 0 14 -10 11 -125 -42z"/>
<path d="M1092 920 c-1 -16 2 -30 7 -30 5 0 11 -9 14 -21 4 -15 2 -19 -10 -15
-8 3 -27 9 -41 12 l-27 6 30 -21 c30 -21 92 -30 80 -12 -3 5 -1 12 5 16 5 3
10 14 10 23 -1 15 -2 15 -15 -1 -13 -18 -14 -16 -17 15 -2 19 -8 32 -15 31 -7
-2 -10 4 -7 12 4 8 2 15 -3 15 -5 0 -10 -13 -11 -30z"/>
<path d="M1440 853 c0 -9 10 -13 30 -11 19 1 26 6 20 12 -15 15 -50 14 -50 -1z"/>
<path d="M2395 818 c-83 -46 -121 -79 -55 -47 25 12 53 26 62 31 10 4 26 8 37
8 17 0 40 35 29 45 -1 1 -34 -15 -73 -37z"/>
<path d="M432 813 c-54 -141 16 -253 221 -352 166 -81 323 -120 588 -147 444
-44 1011 69 1196 239 54 50 82 101 88 164 l5 48 -13 -45 c-47 -158 -193 -251
-527 -336 -107 -27 -168 -35 -415 -53 -119 -9 -166 -8 -310 9 -437 48 -730
167 -820 332 l-28 51 23 19 c16 13 18 18 7 18 -16 0 -16 16 -2 61 10 29 -1 23
-13 -8z"/>
<path d="M1385 701 c-136 -71 -322 -172 -353 -192 -16 -10 -25 -11 -30 -3 -4
6 -50 26 -102 44 -52 17 -102 36 -111 41 -19 10 -48 -16 -33 -30 5 -5 63 -25
129 -45 66 -20 129 -41 140 -46 11 -5 54 -19 95 -30 41 -12 122 -38 180 -58
166 -56 164 -56 440 79 156 77 237 113 242 105 5 -6 8 -7 8 -1 1 6 5 0 10 -13
13 -30 2 -55 -19 -46 -51 24 -121 -7 -121 -53 0 -12 -10 -33 -22 -46 l-23 -22
40 -3 c49 -4 122 15 129 35 3 8 1 23 -4 33 -16 29 -12 33 24 26 48 -9 64 0 93
58 24 47 24 50 4 32 -16 -14 -21 -16 -21 -5 0 9 -5 6 -12 -6 -11 -20 -28 -35
-40 -35 -3 0 -9 19 -13 41 -5 29 -10 38 -16 28 -6 -10 -9 -10 -9 -2 0 11 -101
-31 -190 -78 -76 -40 -324 -159 -331 -159 -6 0 -9 7 -7 16 2 11 -20 23 -86 45
-49 16 -90 28 -92 26 -8 -7 15 -24 46 -35 l35 -12 -40 6 c-43 6 -65 19 -65 39
0 10 -117 55 -143 55 -3 0 -18 5 -34 11 l-28 11 45 18 c125 50 144 59 130 60
-13 0 -13 1 0 10 8 5 23 7 33 4 11 -3 17 0 17 10 0 9 5 16 12 16 6 0 20 8 31
18 19 16 20 16 14 0 -4 -10 -3 -18 2 -18 5 0 11 9 14 19 3 11 30 33 63 49 63
32 105 61 89 61 -5 0 -59 -26 -120 -58z m570 -237 c32 -32 0 -72 -48 -60 -27
6 -45 44 -32 65 10 17 62 13 80 -5z"/>
<path d="M675 724 l-30 -14 43 6 c28 5 42 3 42 -5 0 -6 5 -11 10 -11 16 0 11
27 -6 34 -20 8 -23 7 -59 -10z"/>
<path d="M2138 674 c-37 -20 -36 -35 2 -21 17 6 30 17 30 24 0 16 2 16 -32 -3z"/>
<path d="M2386 655 c-8 -30 -1 -45 21 -45 11 0 14 6 9 23 -3 12 -6 28 -6 35 0
22 -18 13 -24 -13z"/>
<path d="M591 651 c-8 -5 -20 -7 -28 -4 -8 3 -13 -2 -13 -12 0 -12 5 -15 18
-10 48 18 70 17 77 -4 3 -11 3 -25 0 -31 -10 -15 -46 -12 -67 7 -16 15 -18 15
-18 0 0 -36 75 -50 103 -19 23 25 21 48 -5 66 -25 18 -46 20 -67 7z"/>
<path d="M1344 605 c-18 -13 -15 -14 29 -15 46 0 62 12 31 24 -24 9 -39 7 -60
-9z"/>
<path d="M2310 445 c-36 -19 -62 -34 -59 -35 12 0 119 51 124 61 8 12 9 12
-65 -26z"/>
<path d="M2327 413 c-16 -16 -270 -93 -307 -93 -26 0 4 16 55 28 60 15 137 43
132 49 -2 2 -24 -4 -48 -13 -24 -9 -111 -31 -194 -49 -82 -19 -136 -34 -120
-34 17 -1 47 -4 68 -7 23 -4 37 -3 37 4 0 5 -10 8 -22 4 -14 -3 -19 -2 -14 6
4 7 24 12 44 11 30 0 33 -2 17 -9 -35 -15 4 -11 99 11 108 24 266 78 266 90 0
11 -4 11 -13 2z"/>
</g>
</svg>
